<?xml version="1.0" encoding="utf-8"?>
<!-- Generator: Adobe Illustrator 13.0.0, SVG Export Plug-In . SVG Version: 6.00 Build 14948)  -->
<!DOCTYPE svg PUBLIC "-//W3C//DTD SVG 1.1//EN" "http://www.w3.org/Graphics/SVG/1.1/DTD/svg11.dtd">
<svg version="1.1" id="Layer_1" xmlns="http://www.w3.org/2000/svg" xmlns:xlink="http://www.w3.org/1999/xlink" x="0px" y="0px"
	 width="300px" height="61.5px" viewBox="0 0 300 61.5" enable-background="new 0 0 300 61.5" xml:space="preserve">
<g>
	<path fill-rule="evenodd" clip-rule="evenodd" fill="#FFFFFF" d="M295.023,36.333c-3.365,0.776-6.187,2.919-8.866,5.447
		l-0.15,0.029v-0.091l7.083-13.178l1.309-2.56l-0.092-0.089h-2.765l-0.328,0.177l-4.938,9.013c-1.222,2.026-2.948,4.347-5.206,5.389
		c-0.33,0.088-0.716,0.03-0.892-0.299c-0.15-0.414-0.064-0.893,0.145-1.22l6.458-11.901c0.119-0.354,0.505-0.683,0.387-1.07
		l-2.738-0.029l-0.237,0.118c-2.14,3.629-3.956,7.379-6.842,10.683c-1.487,1.605-3.006,3.242-5.029,3.865
		c-0.355,0-0.742,0.059-0.95-0.295c-0.207-0.357-0.062-0.747,0.088-1.071c1.875-3.483,3.631-7.023,5.654-10.443
		c0.326-0.686,0.564-1.638,0.028-2.263c-0.356-0.534-1.041-0.476-1.635-0.534c-2.352,0.325-4.076,2.111-5.922,3.627l-0.029-0.028
		c0.506-1.159,1.218-2.232,1.725-3.391c-0.922-0.18-2.024-0.091-3.003-0.091l-0.21,0.208c-2.677,5.057-5.563,10.353-10.622,14.074
		c-0.712,0.266-1.605,1.19-2.379,0.356c-0.268-0.507,0.03-1.071,0.181-1.548l5.859-10.859l1.069-2.082l-0.088-0.118l-2.768-0.031
		c-0.477,0.179-0.417,0.833-0.894,0.952c-0.655-0.833-1.815-0.952-2.796-0.683c-3.39,1.189-5.502,4.611-7.765,7.349
		c-2.887,3.362-6.306,6.307-10.027,8.091c2.977-2.706,5.416-5.861,6.992-9.223c0.685-1.753,1.787-3.717,0.954-5.712
		c-0.238-0.386-0.597-0.625-1.044-0.654c-2.351-0.088-4.106,1.458-5.8,3.064h-0.181c0.596-1.25,1.4-2.411,1.937-3.658
		c-0.952-0.119-1.844-0.119-2.858-0.119l-0.268,0.119l-4.224,7.557c-1.458,2.407-3.57,4.729-5.831,6.572
		c-0.863,0.567-1.755,1.341-2.887,1.013c-0.474-0.179-0.474-0.715-0.357-1.129l4.523-8.39c0.596-1.159,1.367-2.231,1.486-3.541
		c0-0.506-0.208-0.951-0.564-1.279c-0.446-0.357-1.012-0.388-1.576-0.297c-2.111,0.713-3.957,2.112-5.622,3.837l-0.178,0.061
		c0.354-1.134,1.249-2.561,0.236-3.661c-0.417-0.298-0.922-0.298-1.428-0.178c-2.203,0.653-4.106,2.052-5.861,3.687
		c0.417-1.25,1.338-2.379,1.844-3.629c-0.95-0.148-1.844-0.148-2.856-0.148l-0.297,0.208c-1.248,2.976-4.372,5.684-7.437,6.487
		c-0.24-0.028-0.537,0.18-0.688-0.061c0.626-1.723,1.519-3.808,0.658-5.652c-0.508-0.803-1.398-1.011-2.352-0.891
		c-3.213,0.742-5.833,3.419-7.677,6.187c-1.517,2.647-3.184,5.238-3.184,8.48c0.121,1.013,0.566,2.081,1.576,2.47
		c1.279,0.357,2.473-0.179,3.482-0.775c2.38-1.574,4.135-4.048,5.623-6.277c0.593-0.893,0.981-1.874,1.576-2.766
		c1.37-0.149,2.618-0.565,3.78-1.279c0.652-0.357,1.249-0.953,1.902-1.25v0.09l-6.366,11.482l-0.386,0.863
		c0.951,0.149,2.053,0.12,2.945,0.091l0.237-0.149l5.204-9.4c1.431-2.145,3.185-4.673,5.597-5.773
		c0.324-0.089,0.771-0.119,1.011,0.179c0.147,0.326,0.147,0.625,0,0.951l-2.767,5.027l-4.968,9.017
		c0.028,0.121,0.116,0.149,0.236,0.121c1.071-0.209,2.917,0.711,3.272-0.776l4.284-7.586c1.458-2.501,3.332-5.355,6.012-6.844
		c0.324-0.088,0.802-0.118,1.01,0.24c0.238,0.476-0.06,0.921-0.179,1.338l-5.444,9.759l-0.415,1.221
		c-0.121,0.803-0.032,1.694,0.624,2.259c0.713,0.656,1.845,0.357,2.617,0.062c2.68-1.278,4.999-3.57,7.2-5.833
		c0.031,0.03,0.06,0.063,0.031,0.063l-9.224,16.748l-0.834,1.607l0.088,0.088c0.955,0.088,2.053,0.12,3.006-0.029l7.289-13.149
		l0.328-0.328l0.06,0.06c0.625,1.041,1.754,1.398,2.914,1.161c4.494-0.954,8.185-3.989,11.664-7.261h0.149
		c-0.21,0.386-0.357,0.805-0.596,1.191c-0.713,1.577-1.638,3.687-0.596,5.413c0.388,0.416,0.862,0.686,1.43,0.686
		c2.081-0.179,3.451-1.848,4.968-3.392h0.117c-0.237,0.922-0.682,2.32,0.21,3.063c0.715,0.564,1.815,0.241,2.559-0.059
		c2.827-1.398,5.265-3.897,7.588-6.368h0.118c-1.043,2.204-2.321,4.314-3.452,6.485l0.089,0.12l2.856,0.029l0.269-0.208l4.044-7.436
		c1.46-2.888,3.572-6.011,6.519-7.737c0.326-0.149,0.801-0.149,1.011,0.179c0.237,0.386,0,0.832-0.15,1.19l-5.444,10.055
		c-0.446,0.954-0.741,2.201-0.236,3.185c0.446,0.714,1.278,0.922,2.11,0.743c3.363-1.071,5.863-4.135,8.392-6.692
		c-0.417,1.009-1.042,1.902-1.428,2.915c-0.359,1.009-0.806,2.498,0.147,3.362c0.388,0.295,0.893,0.444,1.428,0.327
		c1.995-0.626,3.631-2.203,5.237-3.749l0.059,0.06c-0.028,0.091-0.059,0.178-0.09,0.235L276.13,53.65l-0.922,1.873l0.09,0.091
		c0.981,0.059,2.201,0.149,3.093-0.058l4.642-8.392c0.864-1.577,1.875-3.064,3.125-4.463c2.528-2.561,5.265-4.7,8.449-5.684
		c0.594-0.266,1.606,0.208,1.813-0.623C295.973,36.217,295.498,36.305,295.023,36.333L295.023,36.333z M118.566,20.329l0.208-0.15
		c0.477-0.863,1.102-1.664,1.399-2.529l-1.756-0.088c-0.384,0.088-0.891-0.088-1.247,0.149c-0.507,0.833-1.042,1.667-1.401,2.558
		C116.662,20.418,117.734,20.329,118.566,20.329L118.566,20.329z M13.097,24.703c2.797,0.536,5.118-0.982,7.113-2.916
		c1.724-2.053,3.391-4.165,3.896-6.665l-0.089,0.029c-1.368,2.768-3.898,5.922-6.991,6.783c-0.923,0.239-2.143,0.269-2.857-0.473
		c-0.951-1.281-0.476-2.917,0.061-4.254c2.2-4.167,6.663-6.25,11.307-5.803c4.491,0.655,8.328,2.886,12.464,4.404
		c0.833-0.745,1.606-1.638,2.409-2.529v-0.239c-3.033-1.279-6.039-2.528-9.252-3.39c-6.903-1.668-13.536,1.009-17.583,6.751
		c-1.309,2.114-2.945,4.494-1.875,7.171C11.967,24.137,12.562,24.494,13.097,24.703L13.097,24.703z M27.051,22.62
		c1.727-2.559,3.749-5.683,6.754-6.784v-0.089l-0.746-0.029c-8.09,1.517-12.285,10.352-15.915,16.629
		c-1.964,3.184-3.453,6.605-6.515,9.283c-1.221,0.86-2.887,1.727-4.403,0.893c-0.685-0.357-1.042-1.071-1.221-1.756
		c-0.177-1.191,0.208-2.379,1.012-3.243c0.387-0.148,0.745,0.208,1.161,0.179c0.864-0.091,1.755-0.357,2.142-1.22
		c0.089-0.387,0.089-0.773-0.208-1.043c-0.357-0.236-0.861-0.267-1.25-0.146c-1.695,0.536-3.093,2.288-3.451,3.957
		c-0.179,1.159-0.059,2.35,0.654,3.213c1.221,1.338,3.363,1.545,5.029,0.951c4.878-1.516,8.716-6.485,11.127-10.739L27.051,22.62
		L27.051,22.62z M50.02,26.278c-4.703,1.845-8.51,6.636-10.235,11.188c-0.298,0.655-0.298,1.457-0.654,2.109
		c-1.338,0.806-2.618,1.697-4.195,1.906c-0.389-0.03-0.833-0.06-1.042-0.475c-0.119-0.302-0.119-0.775,0-1.104l5.713-10.053
		c0.357-0.656,0.685-1.339,0.685-2.144c0-0.536-0.208-0.98-0.656-1.278c-0.505-0.298-1.16-0.208-1.695-0.091
		c-2.44,0.865-4.464,2.797-6.426,4.732c0.356-0.951,1.012-1.875,1.577-2.826c4.432-3.153,8.956-6.992,12.257-11.544l-0.922,0.209
		c-1.995,2.381-4.226,4.82-6.666,6.841c-1.13,0.864-2.23,1.906-3.421,2.529v-0.118c2.589-4.254,5.176-8.51,8.449-12.525
		c1.191-1.338,2.499-3.065,4.135-3.778c0.269-0.12,0.596-0.031,0.804,0.238c0.209,1.012-0.327,1.963-0.744,2.825
		c0.268-0.089,0.655,0,0.833-0.238c0.417-0.951,0.982-2.023,0.537-3.153c-1.011-1.309-2.62-0.178-3.658,0.446
		c-5.237,3.868-9.017,9.341-12.409,14.459L20.804,43.15l-0.18,0.474c1.013,0.267,2.143,0.028,3.215,0.12l0.297-0.236
		c1.755-2.948,3.273-6.041,5.385-8.868c1.636-2.113,3.539-4.493,5.86-5.891c0.297-0.12,0.833-0.328,1.1,0.061
		c0.12,0.268,0.031,0.594-0.088,0.831l-4.82,8.421c-0.713,1.577-2.23,3.155-1.426,5.027c0.326,0.507,0.862,0.715,1.426,0.743
		c2.857-0.116,4.94-2.021,7.32-3.242l0.298-0.029c0.177,1.042,0.505,2.052,1.487,2.679c0.922,0.593,2.35,0.564,3.36,0.148
		c2.976-1.221,5.475-4.227,7.29-6.875l0.031-0.295h-0.625c-1.577,1.963-3.422,4.489-5.892,5.206
		c-0.536,0.12-1.011-0.059-1.397-0.447c-0.417-0.474-0.597-1.159-0.417-1.815l2.737-1.993c2.974-2.379,5.92-5.236,7.408-8.626
		c0.209-0.685,0.329-1.607-0.328-2.113C52.072,25.804,50.882,26.012,50.02,26.278L50.02,26.278z M50.345,31.723
		c-2.052,2.41-4.431,4.643-7.051,6.218c0.299-1.487,1.042-2.857,1.816-4.165c1.517-2.439,3.481-5.383,6.189-6.633
		c0.416-0.149,1.13-0.299,1.25,0.328C52.46,29.104,51.27,30.385,50.345,31.723L50.345,31.723z M41.272,16.072
		c-0.059,0.18-0.267,0.36-0.118,0.537c3.778,0.328,6.991-1.19,9.875-3.243c1.368-1.13,2.708-2.5,3.542-3.986
		c-3.154,2.917-6.873,4.404-11.278,4.255C42.523,14.32,41.956,15.271,41.272,16.072L41.272,16.072z M88.786,39.011l-10.801,2.736
		c-1.812,0.391-3.718,0.657-5.71,0.448c-2.112-0.239-4.256-1.519-5.178-3.6c-1.518-4.135,0.237-8.509,1.964-12.109
		c2.767-5.235,6.693-10.415,11.663-14.37c1.545-0.981,3.211-2.171,5.177-1.726c0.356,0.149,0.533,0.536,0.683,0.865
		c0.061,0.417,0,0.831-0.268,1.13c-0.654-0.089-1.248,0.119-1.696,0.594c-0.565,0.596-0.951,1.37-0.802,2.202
		c0.117,0.297,0.445,0.565,0.773,0.537c0.685-0.061,1.25-0.625,1.666-1.192c0.803-1.219,1.576-2.974,0.714-4.402
		c-0.357-0.627-0.983-0.894-1.579-1.072c-2.885-0.269-5.354,0.981-7.674,2.291c-6.041,3.838-11.483,9.998-14.192,16.304
		c-1.697,4.015-2.856,10.175,0.625,13.775c2.707,2.944,7.467,2.678,11.067,1.785l9.372-2.32c3.154-0.627,7.228-1.013,10.055,0.595
		c1.042,0.564,1.994,1.457,2.707,2.408c0.597-0.683,1.311-1.367,2.084-1.725c3.777-1.308,7.587,0.267,10.83,1.756
		c-2.143-2.175-4.611-3.689-7.2-4.82C98.783,37.288,93.218,37.94,88.786,39.011L88.786,39.011z M112.794,26.278
		c-1.518,1.905-2.856,4.226-5.056,5.505c-0.269,0.147-0.685,0.147-0.863-0.12c-0.208-0.356-0.03-0.801,0.089-1.159l7.082-12.348
		l0.178-0.477c-0.954-0.148-2.083-0.118-3.007-0.029l-0.655,0.982c-0.356-0.297-0.684-0.773-1.16-0.921
		c-1.398-0.417-2.766,0.208-3.836,1.01c-4.611,3.423-6.815,8.481-10.979,12.289c-1.19,0.953-2.649,2.26-4.195,1.398
		c-0.804-0.652-0.773-1.785-0.625-2.737c1.159-3.689,3.213-7.111,6.336-9.876c0.804-0.505,1.638-1.279,2.679-0.833
		c0.445,0.208,0.565,0.713,0.505,1.189c0.06,0.715-0.656,0.298-1.042,0.446c-0.833,0.298-1.488,1.132-1.666,1.963
		c-0.06,0.357-0.029,0.805,0.328,1.013c0.594,0.269,1.19-0.12,1.606-0.536c1.072-1.191,1.933-2.826,1.25-4.375l-0.476-0.594
		c-2.052-1.279-4.315,0.12-5.951,1.399c-2.204,1.695-3.867,4.523-6.606,4.82c0.448-1.311,1.072-2.649,1.161-4.136
		c0.032-0.952-0.207-1.904-1.07-2.35c-1.072-0.477-2.32-0.089-3.272,0.387c-4.047,2.289-7.229,6.516-8.926,10.591
		c-0.506,1.754-1.309,3.899-0.119,5.592c0.625,0.713,1.696,0.804,2.558,0.539c4.195-1.55,7.052-6.072,9.134-9.702
		c0.803-0.089,1.548-0.445,2.292-0.537c-1.133,1.875-2.144,3.81-2.471,6.011c-0.208,1.489,0.12,2.978,1.338,3.867
		c2.74,1.252,5.177-0.744,7.201-2.527c0.833-0.744,1.666-1.727,2.5-2.382c-0.268,1.042-0.745,1.995-0.773,3.124
		c0,0.896,0.387,1.817,1.218,2.146c2.38,0.474,3.927-1.608,5.594-3.067l0.06,0.061c-0.238,0.861-0.594,2.11,0.236,2.798
		c0.358,0.296,0.835,0.354,1.341,0.325c3.123-0.922,5.325-4.104,7.317-6.605c0.447-0.714,1.073-1.369,1.28-2.142
		C113.151,26.249,112.943,26.161,112.794,26.278L112.794,26.278z M81.467,30.682c-0.803,0.685-1.606,1.458-2.707,1.221
		c-0.418-0.061-0.625-0.536-0.775-0.893c-0.088-2.498,1.37-4.672,2.649-6.754l1.19-1.607c0.327,0.239,0.387,0.655,0.684,0.953
		c0.773,0.893,1.755,1.338,2.797,1.606C84.354,27.171,83.104,29.017,81.467,30.682L81.467,30.682z M85.722,24.345
		c-1.072-0.059-2.112-0.476-2.649-1.429c-0.506-0.951-0.028-2.021,0.507-2.795c0.803-0.893,2.053-1.814,3.152-0.952
		c0.656,0.981,0.18,2.231-0.058,3.242C86.375,23.067,86.197,23.81,85.722,24.345L85.722,24.345z M101.579,31.842
		c-0.268,0.061-0.713,0.15-0.925-0.087c-0.414-0.329-0.325-0.954-0.237-1.399c0.775-2.857,2.649-5.265,4.375-7.736
		c1.191-1.428,2.47-3.303,4.285-3.779c0.385-0.089,0.741,0.088,0.892,0.416v0.357l-4.433,7.645
		C104.433,28.898,103.392,30.862,101.579,31.842L101.579,31.842z M131.33,26.697c-0.804-0.776-2.231-0.627-3.184-0.24
		c-4.016,1.666-6.01,5.89-6.574,9.875l0.058,0.15c1.19-1.31,2.589-2.438,4.166-3.006c0.326-1.338,0.714-2.647,1.519-3.807
		c0.803-1.042,1.845-2.439,3.302-2.112c0.475,0.208,0.654,0.686,0.685,1.16c0.118,3.659-1.817,6.665-4.167,9.404
		c-1.843,1.753-3.926,3.895-6.634,3.094c-1.011-0.448-1.787-1.457-1.992-2.5c-0.508-3.956,1.16-7.438,2.676-10.74
		c3.303-6.22,8.271-12.438,14.46-16.544c1.487-0.684,2.915-1.843,4.79-1.367c0.119,0.03,0.328,0.118,0.328,0.297
		c-2.5,1.369-4.999,3.75-6.663,6.188c-0.804,1.43-1.726,2.828-1.638,4.612c0.12,0.595,0.416,1.221,1.01,1.458
		c1.34,0.417,2.47-0.417,3.512-1.07c3.034-2.529,4.761-5.802,5.267-9.491c0.118-0.478-0.21-0.951,0.029-1.339
		c1.249-0.388,2.647-0.06,3.777,0.297c3.305,1.37,6.25,3.541,9.432,5.119c0.774-0.685,1.52-1.519,2.291-2.292l0.09-0.268
		c-2.528-1.426-4.998-2.976-7.677-4.019c-2.588-1.129-5.95-0.682-8.448,0.33c-0.833-0.833-1.904-1.131-3.125-1.042
		c-3.451,0.357-6.336,2.055-9.163,3.958c-7.022,5.205-12.317,12.554-14.906,20.319c-0.922,3.125-1.338,7.497,1.636,9.76
		c1.638,1.25,4.287,1.01,6.041,0.207c4.344-2.054,7.766-6.576,9.342-10.859C132.133,30.622,132.64,28.153,131.33,26.697
		L131.33,26.697z M141.536,11.789c-0.389,3.898-2.529,7.439-5.922,9.76c-0.535,0.237-1.13,0.533-1.783,0.326
		c-0.297-0.147-0.536-0.415-0.596-0.743c-0.03-2.231,1.369-3.957,2.618-5.682c1.517-1.814,3.333-3.452,5.326-4.343
		C141.475,11.136,141.506,11.521,141.536,11.789L141.536,11.789z M166.05,29.79l1.903-3.453l-0.059-0.088l-2.709-0.028
		c-0.563,0.088-0.652,0.802-1.011,1.159h-0.118c-0.179-0.328-0.564-0.625-0.864-0.833c-0.922-0.564-2.229-0.268-3.093,0.208
		c-4.581,3.036-7.079,7.914-10.057,12.141c-0.771,0.802-1.635,2.321-2.885,1.844c-0.386-0.299-0.386-0.714-0.446-1.162
		c0.237-2.438,1.101-4.609,2.053-6.723c2.173-1.576,4.256-3.332,6.218-5.325c3.006-3.065,5.949-6.187,8.21-9.581
		c-0.205-0.118-0.474-0.06-0.681,0.06c-3.631,4.672-7.978,9.58-12.766,13.239l-0.18,0.032c1.31-3.065,3.153-5.862,4.88-8.719
		c2.799-4.194,5.684-8.598,9.877-11.989c0.567-0.327,1.281-1.042,1.934-0.506c0.21,0.475,0.061,1.042-0.118,1.488
		c-0.236,0.863-0.863,1.606-1.041,2.469c0.267-0.029,0.565-0.029,0.684-0.269l0.953-2.022c0.297-0.743,0.534-1.814-0.029-2.529
		c-0.298-0.298-0.715-0.269-1.101-0.298c-1.43,0.269-2.648,1.042-3.84,1.905c-7.645,6.218-12.792,14.163-16.599,22.313
		c-0.716,0.328-1.519,0.538-2.292,0.418c0.596-1.547,1.398-3.035,1.458-4.791c0-0.983-0.208-1.963-1.132-2.411
		c-1.16-0.476-2.319,0.032-3.332,0.477c-4.551,2.589-7.557,7.231-9.103,11.811c-0.328,1.49-0.744,3.541,0.564,4.674
		c0.833,0.623,2.111,0.445,2.975,0.026c3.689-1.752,6.22-5.68,8.092-9.014c0.774-0.059,1.519-0.15,2.261-0.267l0.089,0.059
		l-0.982,2.915c-0.355,1.935-1.576,4.464,0.09,6.16c0.445,0.416,1.071,0.474,1.666,0.416c2.024-0.507,3.451-2.5,4.97-3.986
		c-0.09,0.743-0.356,1.517-0.24,2.317c0.091,0.686,0.449,1.399,1.161,1.669c2.441,0.594,4.015-1.694,5.714-3.243l0.028,0.03
		c-0.269,0.892-0.595,2.171,0.148,2.943c0.536,0.565,1.488,0.39,2.112,0.149c3.392-1.694,5.743-5.295,7.736-8.301v-0.298
		c-0.208-0.029-0.475-0.058-0.625,0.12c-1.398,2.022-2.829,4.343-5.057,5.681c-0.269,0.148-0.595,0.029-0.745-0.205
		c-0.269-0.506,0.089-1.013,0.207-1.461L166.05,29.79L166.05,29.79z M140.255,36.574c-0.952,1.428-2.23,2.976-3.748,3.865
		c-0.417,0.149-0.952,0.299-1.339,0.063c-0.328-0.15-0.597-0.478-0.655-0.834c-0.149-2.857,1.519-5.178,3.004-7.497l0.744-0.893
		c0.505,0.714,0.953,1.696,1.844,2.2l1.458,0.684C141.355,35.025,140.73,35.801,140.255,36.574L140.255,36.574z M142.012,33.39
		c-1.013-0.12-1.995-0.802-2.44-1.755c-0.476-0.982-0.208-2.203,0.476-3.006c0.774-0.922,2.321-1.992,3.243-0.714
		C143.944,29.879,142.874,31.755,142.012,33.39L142.012,33.39z M158.195,37.853c-0.745,1.071-1.667,2.408-2.945,2.824
		c-0.357,0.029-0.682-0.117-0.863-0.416c-0.354-1.605,0.625-2.943,1.189-4.313c1.696-2.854,3.45-6.008,6.368-8.091
		c0.505-0.269,1.369-0.386,1.637,0.297l-0.029,0.328L158.195,37.853L158.195,37.853z M160.875,14.646
		c-0.864,0.714-1.46,1.695-2.173,2.561v0.176c3.302,0.746,6.483-0.326,9.192-1.844c2.558-1.517,5.087-3.897,6.546-6.455
		C170.602,12.623,166.257,15.182,160.875,14.646L160.875,14.646z M193.809,26.546c-0.952-0.625-2.351-0.385-3.334,0.032
		c-3.956,1.843-5.501,6.038-6.159,9.934l0.09,0.15c0.925-1.579,2.53-3.036,4.286-3.332c0.267-1.28,0.682-2.5,1.277-3.66
		c0.746-1.1,1.907-2.379,3.333-2.142c0.864,0.387,0.864,1.428,0.836,2.262c-0.51,3.094-2.024,5.741-4.106,8.183
		c-1.846,1.964-4.046,4.044-6.845,3.122c-1.546-0.743-2.204-2.379-2.204-4.047c0.332-5.503,3.037-10.054,5.922-14.489
		c3.274-4.431,7.737-9.222,12.676-11.336c0.804-0.208,1.873-0.385,2.469,0.389c0.238,0.297,0.21,0.774,0.149,1.158
		c0.029,0.805-0.774,0.3-1.189,0.567c-0.803,0.298-1.398,1.131-1.551,1.934c0,0.387-0.057,0.864,0.328,1.13
		c0.715,0.268,1.341-0.208,1.847-0.713c1.01-1.161,1.727-2.737,1.159-4.284c-1.219-2.202-4.313-1.279-6.068-0.595
		c-9.164,4.018-16.958,13.506-19.427,22.909c-0.625,3.036-0.865,6.901,1.991,8.927c1.399,1.042,3.541,1.101,5.178,0.507
		c4.463-1.818,8.092-6.576,9.729-10.891C194.7,30.593,195.534,27.915,193.809,26.546L193.809,26.546z M199.401,40.53
		c-0.537,0.295-1.191,0.478-1.756,0.176c-0.862-0.412-0.743-1.426-0.654-2.229c0.743-2.824,2.321-5.355,4.254-7.676
		c0.416,0.744,0.804,1.666,1.666,2.143c0.537,0.357,1.161,0.416,1.756,0.625C203.567,36.158,201.693,38.687,199.401,40.53
		L199.401,40.53z M205.202,32.645c-0.237,0.299-0.654,0.151-0.981,0.119c-0.921-0.176-1.755-0.952-2.022-1.843
		c-0.24-0.716-0.089-1.607,0.328-2.203c0.714-0.923,2.05-1.904,3.122-0.923C206.718,29.313,205.77,31.187,205.202,32.645
		L205.202,32.645z M232.813,42.465c-0.387-0.27-0.656-0.685-0.656-1.133c1.698-3.243,3.454-6.456,5.267-9.609
		c0.982-1.13,2.114-2.528,3.541-2.825c0.387-0.029,0.684,0.09,0.953,0.326c0.715,0.953,0.117,2.202-0.18,3.153
		c-1.49,3.242-3.45,6.339-6.127,9.046C234.806,42.075,233.884,42.939,232.813,42.465L232.813,42.465z M252.715,37.732
		c-0.803,1.13-1.725,2.562-3.124,3.126c-0.445,0.088-0.832-0.091-1.01-0.477c-0.27-1.578,0.624-2.827,1.188-4.106
		c1.726-3.154,3.66-6.099,6.607-8.539c0.415-0.357,1.338-0.594,1.635,0.119l-0.03,0.357L252.715,37.732L252.715,37.732z"/>
</g>
</svg>
