<svg xmlns="http://www.w3.org/2000/svg" xmlns:xlink="http://www.w3.org/1999/xlink" version="1.1" x="0px" y="0px" viewBox="0 0 100 125" enable-background="new 0 0 100 100" xml:space="preserve"><g><path d="M63.575,57.044c-0.12-1.334,2.548-10.841-1.053-19.755c0,0,0.267-1.239-0.134-2.477c-0.4-1.237-4.509-10.838-5.188-17.239   c-0.679-6.401-0.812-9.467-0.812-9.467s2-1.453-0.4-5.587c0,0,1.6-2.519-0.268-2.519H44.279c-1.867,0-0.267,2.519-0.267,2.519   c-2.401,4.134-0.4,5.71-0.4,5.71s-0.133,3.005-0.812,9.406c-0.68,6.401-4.788,15.971-5.188,17.208   c-0.4,1.238-0.134,2.462-0.134,2.462c-3.601,8.914-0.933,18.413-1.053,19.747c-0.12,1.333,1.187,9.73,2.121,16.53   c0.933,6.802-1.334,11.442-2,15.709C35.877,93.559,38.211,99,38.211,99h0.085c0.674,0,5.626,0.99,11.645,0.99   c6.018,0,10.971-0.99,11.645-0.99h0.201c0,0,2.334-5.443,1.667-9.711c-0.666-4.266-2.934-8.787-2-15.59   C62.389,66.9,63.695,58.377,63.575,57.044z"/></g><text x="0" y="115" fill="#000000" font-size="5px" font-weight="bold" font-family="'Helvetica Neue', Helvetica, Arial-Unicode, Arial, Sans-serif"></text><text x="0" y="120" fill="#000000" font-size="5px" font-weight="bold" font-family="'Helvetica Neue', Helvetica, Arial-Unicode, Arial, Sans-serif"></text></svg>
